<svg width="60" height="60" viewBox="0 0 60 60" fill="none" xmlns="http://www.w3.org/2000/svg">
<path d="M29.6506 41.7641C36.2728 41.7641 41.6411 36.3958 41.6411 29.7737C41.6411 23.1515 36.2728 17.7832 29.6506 17.7832C23.0285 17.7832 17.6602 23.1515 17.6602 29.7737C17.6602 36.3958 23.0285 41.7641 29.6506 41.7641Z" fill="#F6F6F7"/>
<path d="M18.0982 1.75195C8.83315 1.75195 1.28906 9.29604 1.28906 18.561V41.4383C1.28906 50.7033 8.83315 58.247 18.0982 58.247H41.2072C50.4722 58.247 58.0159 50.7038 58.0159 41.4383V18.561C58.0159 9.29604 50.4727 1.75195 41.2072 1.75195H18.0982ZM18.0982 7.18786H41.2072C47.555 7.18786 52.58 12.2138 52.58 18.561V41.4383C52.58 47.786 47.555 52.811 41.2072 52.811H18.0982C11.7504 52.811 6.72497 47.786 6.72497 41.4383V18.561C6.72497 12.2133 11.7509 7.18786 18.0982 7.18786Z" fill="#F6F6F7"/>
<path d="M44.9144 18.4499C46.7958 18.4499 48.321 16.9247 48.321 15.0433C48.321 13.1619 46.7958 11.6367 44.9144 11.6367C43.033 11.6367 41.5078 13.1619 41.5078 15.0433C41.5078 16.9247 43.033 18.4499 44.9144 18.4499Z" fill="#F6F6F7"/>
</svg>
